<svg xmlns="http://www.w3.org/2000/svg" width="1em" height="1em" fill="none" viewBox="0 0 22 19" class=" " stroke="none" style="font-size: 16px;"><path stroke="#fff" stroke-linecap="round" stroke-linejoin="round" stroke-width="1.5" d="M1.25 15.75a60.072 60.072 0 0 1 15.797 2.101c.727.198 1.453-.342 1.453-1.096V15.75M2.75 1.5v.75A.75.75 0 0 1 2 3h-.75m0 0v-.375c0-.621.504-1.125 1.125-1.125H19.25M1.25 3v9m18-10.5v.75c0 .414.336.75.75.75h.75m-1.5-1.5h.375c.621 0 1.125.504 1.125 1.125v9.75c0 .621-.504 1.125-1.125 1.125h-.375m-18-1.5v.375A1.125 1.125 0 0 0 2.375 13.5h.375M1.25 12H2a.75.75 0 0 1 .75.75v.75m16.5 0v-.75A.75.75 0 0 1 20 12h.75m-1.5 1.5H2.75M14 7.5a3 3 0 1 1-6 0 3 3 0 0 1 6 0Zm3 0h.008v.008H17V7.5Zm-12 0h.008v.008H5V7.5Z"></path></svg>