<svg xmlns="http://www.w3.org/2000/svg" width="1em" height="1em" fill="none" viewBox="0 0 12 12" class=" " stroke="none" style="height: 16px; width: 16px;"><path fill="#FFD232" d="M5.58 1.15a.5.5 0 0 1 .84 0l1.528 2.363a.5.5 0 0 0 .291.212l2.72.722a.5.5 0 0 1 .26.799L9.442 7.429a.5.5 0 0 0-.111.343l.153 2.81a.5.5 0 0 1-.68.493L6.18 10.063a.5.5 0 0 0-.36 0l-2.625 1.014a.5.5 0 0 1-.68-.494l.153-2.81a.5.5 0 0 0-.11-.343L.781 5.246a.5.5 0 0 1 .26-.799l2.719-.722a.5.5 0 0 0 .291-.212L5.58 1.149Z"></path></svg>