<svg xmlns="http://www.w3.org/2000/svg" width="1em" height="1em" fill="none" viewBox="0 0 22 17" class=" " stroke="none" style="font-size: 16px;"><path stroke="#fff" stroke-linecap="round" stroke-linejoin="round" stroke-width="1.5" d="M7.25 14.75a1.5 1.5 0 0 1-3 0m3 0a1.5 1.5 0 0 0-3 0m3 0h6m-9 0H2.375a1.125 1.125 0 0 1-1.125-1.125V10.25m12 4.5h2.25m-2.25 0v-4.5m-12 0V2.615a1.106 1.106 0 0 1 .987-1.106 48.554 48.554 0 0 1 10.026 0c.565.058.987.538.987 1.106v.958m-12 6.677h12m5.25 4.5a1.5 1.5 0 0 1-3 0m3 0a1.5 1.5 0 1 0-3 0m3 0h1.125c.621 0 1.129-.504 1.09-1.124a17.902 17.902 0 0 0-3.213-9.193 2.055 2.055 0 0 0-1.58-.86H13.25m0 0v6.677"></path></svg>